<svg version="1.1" id="Layer_1" xmlns="http://www.w3.org/2000/svg" xmlns:xlink="http://www.w3.org/1999/xlink" x="0px" y="0px"
	 width="100%" viewBox="0 0 518 120" enable-background="new 0 0 518 120" xml:space="preserve">
<path fill="#FFFEFE" opacity="1.000000" stroke="none" 
	d="
M341.000000,121.000000 
	C227.333328,121.000000 114.166664,121.000000 1.000000,121.000000 
	C1.000000,81.000000 1.000000,41.000000 1.000000,1.000000 
	C173.666672,1.000000 346.333344,1.000000 519.000000,1.000000 
	C519.000000,41.000000 519.000000,81.000000 519.000000,121.000000 
	C459.833344,121.000000 400.666656,121.000000 341.000000,121.000000 
M78.068283,76.604584 
	C78.398956,76.818817 78.729630,77.033051 79.481918,77.723206 
	C82.323532,80.245094 85.280045,82.650749 87.978188,85.317780 
	C91.484474,88.783653 94.785355,92.457321 98.414742,96.648788 
	C100.679367,99.741287 103.632462,102.582062 107.486855,101.250229 
	C110.414169,100.238739 113.943390,97.823708 114.968910,95.169350 
	C116.629524,90.871208 113.272995,87.573593 109.326294,84.582680 
	C103.919609,78.457664 98.512924,72.332649 93.710480,65.889183 
	C97.459915,61.334709 101.970253,57.201702 104.780998,52.127289 
	C109.030022,44.456280 106.766075,36.716343 99.536484,30.312582 
	C89.319092,17.411591 76.749649,18.260761 67.660629,25.121748 
	C60.434071,30.576826 56.128513,38.202827 55.127308,47.033188 
	C53.280247,63.323803 52.210056,79.702118 50.782429,96.040939 
	C50.425007,100.131546 52.353493,102.646713 56.124096,104.779907 
	C58.142517,109.001320 61.831459,109.687866 65.800537,108.838898 
	C70.271698,107.882538 72.339287,104.486603 72.722481,100.158073 
	C73.277763,93.885574 73.484772,87.580696 74.114395,81.317184 
	C74.330582,79.166595 75.369583,77.098732 76.011086,74.971802 
	C76.011086,74.971802 75.981064,74.967735 76.274330,75.513596 
	C76.842644,75.708580 77.410965,75.903572 77.985901,76.024361 
	C77.985901,76.024361 77.911819,76.032204 78.068283,76.604584 
M364.109985,85.350243 
	C363.679443,84.955208 363.248901,84.560181 362.321808,83.712936 
	C357.192047,77.883827 352.062286,72.054718 347.559692,65.896400 
	C351.379944,61.196404 355.990448,56.924835 358.827606,51.691837 
	C362.683105,44.580467 360.115997,36.320015 354.009705,31.975557 
	C354.009705,31.975557 354.083130,31.979372 354.120911,31.420919 
	C353.736267,31.051601 353.351654,30.682281 352.476410,29.820757 
	C342.547729,17.849943 328.087372,17.444054 317.509033,28.846577 
	C311.965759,34.821762 309.067383,42.130219 308.231812,50.006874 
	C306.599884,65.389565 305.471588,80.827614 304.284454,96.254250 
	C303.981842,100.187012 306.050140,102.894310 309.974426,104.905350 
	C311.894562,109.283356 315.620392,109.730774 319.568237,108.925323 
	C323.571930,108.108490 325.767242,105.371185 326.116638,101.236931 
	C326.742828,93.826317 327.308350,86.409012 328.087708,79.014381 
	C328.222321,77.737122 329.288055,76.557991 330.333221,75.835670 
	C334.033875,78.899651 337.920868,81.768631 341.385956,85.079163 
	C345.321167,88.838852 348.879028,92.993515 352.905945,97.657768 
	C357.523529,102.728821 362.992310,103.214798 367.121857,98.921066 
	C370.628937,95.274544 369.519745,90.583130 364.004883,85.987381 
	C364.004883,85.987381 364.076050,85.980675 364.109985,85.350243 
M293.091400,77.464661 
	C292.811676,77.291496 292.531982,77.118332 292.010284,76.274826 
	C290.119263,72.363075 286.819885,71.023277 282.694641,71.105766 
	C277.587402,71.207893 272.479126,71.255394 267.578033,70.399208 
	C267.833923,68.468918 268.089783,66.538635 268.431213,63.962997 
	C271.885162,64.249329 275.102264,64.552452 278.324951,64.774483 
	C282.940796,65.092491 286.933044,62.597820 287.795563,58.513382 
	C288.700958,54.225758 287.651154,50.633366 282.763977,48.297039 
	C280.646149,43.649220 276.507843,42.822392 272.003357,41.849533 
	C272.416016,39.321732 272.828644,36.793930 273.271881,34.078854 
	C279.056915,34.385857 284.163635,34.664173 289.271210,34.925602 
	C293.350739,35.134403 296.479065,33.618214 297.795624,29.591837 
	C299.242493,25.166960 297.479156,21.493193 292.670471,18.357725 
	C290.075867,16.575504 287.637177,13.609569 284.856049,13.243191 
	C277.806946,12.314569 270.604065,12.366677 263.463104,12.373899 
	C256.068085,12.381379 253.261078,14.915164 252.162445,22.220602 
	C249.349213,40.927612 246.856445,59.686638 243.735794,78.341270 
	C242.805634,83.901550 244.350677,87.323303 249.169815,90.523575 
	C252.122345,92.000061 255.083160,94.745506 258.025909,94.726311 
	C268.900391,94.655304 279.770325,93.693726 290.638916,93.017746 
	C294.692474,92.765633 297.186859,90.320526 297.636414,86.523216 
	C298.065521,82.898331 297.581024,79.185295 293.009430,77.944366 
	C293.009430,77.944366 293.075470,77.971283 293.091400,77.464661 
M127.961555,90.003525 
	C127.961555,90.003525 127.915833,90.059319 127.901482,90.794525 
	C130.444717,95.113762 134.574081,95.098946 138.822739,94.822189 
	C148.075150,94.219505 157.322891,93.431595 166.585617,93.151451 
	C170.842758,93.022690 174.432312,92.127068 175.644333,87.843369 
	C176.923416,83.322571 175.856476,79.248726 170.678375,76.466362 
	C168.796570,72.526688 165.479095,71.082008 161.330399,71.117004 
	C156.175705,71.160484 151.021210,71.226768 145.910355,70.402969 
	C146.455536,63.750416 146.831970,63.441914 153.431442,64.295212 
	C154.575592,64.443138 155.709747,64.692764 156.857391,64.785339 
	C161.683395,65.174622 164.855164,62.892399 166.140686,58.371784 
	C167.322372,54.216328 165.849075,50.973236 161.369415,48.578747 
	C159.249222,43.967247 155.298187,42.703896 150.631500,41.884796 
	C151.126114,34.397099 151.125870,34.403915 158.324295,34.661968 
	C161.319748,34.769344 164.321655,34.758591 167.311417,34.947571 
	C171.884827,35.236652 175.263016,33.640263 176.298630,28.941082 
	C177.306747,24.366652 175.782700,20.785465 171.003372,18.190641 
	C169.032654,16.534126 167.159103,13.601296 165.074341,13.442549 
	C156.158661,12.763651 147.178375,12.718002 138.226440,12.828406 
	C134.229431,12.877702 131.812225,15.766777 131.226227,19.522274 
	C128.053314,39.856796 125.054382,60.218483 122.001968,80.571777 
	C121.372665,84.767906 123.005989,87.678604 127.147766,89.691818 
	C127.310616,90.061760 127.586067,90.189339 127.961555,90.003525 
M192.028595,91.968124 
	C192.028595,91.968124 192.001022,91.949440 192.267807,92.583405 
	C198.405701,98.447975 205.936569,100.022591 213.973801,98.925606 
	C224.226013,97.526299 232.289795,92.497215 235.677429,82.302162 
	C238.987854,72.339493 236.745316,63.342281 228.968704,56.029953 
	C228.968704,56.029953 229.013031,56.040577 228.836792,55.525139 
	C228.545364,55.317043 228.253937,55.108948 227.621078,54.346077 
	C222.687958,50.556805 217.754852,46.767529 212.893661,42.233868 
	C213.410446,37.038185 217.799835,35.530167 221.444351,33.415104 
	C228.550385,29.291170 228.737534,23.966097 221.450104,18.428810 
	C216.785980,12.458982 213.509827,11.102761 208.457230,13.584274 
	C201.347427,17.076164 195.949860,22.370136 192.934875,29.810925 
	C189.125916,39.211292 190.853943,47.020428 198.601944,53.608364 
	C202.967819,57.320595 207.990936,60.255806 212.394821,63.928539 
	C217.265015,67.990166 215.673965,75.122620 209.534149,76.658157 
	C205.395309,77.693260 201.256866,78.188972 197.416504,74.594719 
	C193.666824,71.085358 187.615768,72.102654 184.471252,75.939331 
	C181.787247,79.214127 182.412140,82.766037 186.508026,86.917328 
	C187.906876,88.335106 189.462662,89.598045 191.155731,91.431656 
	C191.452621,91.619858 191.749512,91.808060 192.028595,91.968124 
M453.010284,95.734360 
	C455.111938,99.880737 458.786652,100.714478 462.749695,99.647560 
	C466.817627,98.552414 468.931824,95.612663 469.130402,91.160774 
	C469.426483,84.524620 470.035095,77.900520 470.595367,71.278458 
	C471.716003,58.033451 472.894012,44.793301 474.048248,31.551134 
	C474.381500,27.727423 473.627014,24.536314 469.097351,22.763145 
	C466.393890,18.211800 462.808990,16.706894 458.325165,18.394018 
	C453.548737,20.191240 452.392700,24.189962 452.025208,28.780664 
	C450.525604,47.514175 448.985046,66.244797 447.341614,84.966133 
	C446.926056,89.699883 448.474701,93.080040 453.010284,95.734360 
M435.902496,35.095692 
	C433.995422,31.239635 430.862000,29.595411 426.619080,29.932774 
	C422.428070,30.266005 420.334442,32.934719 418.817108,36.540329 
	C414.670013,46.395065 410.380127,56.189724 405.964935,65.248825 
	C403.250061,56.122513 400.733337,46.929405 397.693512,37.912647 
	C396.838043,35.375092 394.447662,33.354992 392.323639,30.587860 
	C388.873260,25.327658 385.361511,23.836025 380.797424,25.678011 
	C376.317261,27.486135 374.674408,31.068611 376.088135,35.339787 
	C381.912140,52.935169 387.804718,70.517128 394.241913,87.892899 
	C395.639404,91.665024 399.391052,94.564980 402.244873,98.557083 
	C408.267792,105.359421 414.402954,104.766266 418.033539,96.608696 
	C425.526062,79.773827 432.767242,62.825798 439.970337,45.864231 
	C442.076416,40.904991 440.974792,38.508488 435.902496,35.095692 
z"/>
<path fill="#F9786D" opacity="1.000000" stroke="none" 
	d="
M56.006142,104.088127 
	C52.353493,102.646713 50.425007,100.131546 50.782429,96.040939 
	C52.210056,79.702118 53.280247,63.323803 55.127308,47.033188 
	C56.128513,38.202827 60.434071,30.576826 67.660629,25.121748 
	C76.749649,18.260761 89.319092,17.411591 99.769722,30.981068 
	C105.223625,45.283985 96.889557,53.718300 87.656776,62.197063 
	C89.720055,63.715546 91.413147,64.961586 93.106239,66.207634 
	C98.512924,72.332649 103.919609,78.457664 109.620468,85.246109 
	C110.878433,90.666740 109.255325,94.178284 104.570557,95.656609 
	C102.594833,96.280060 100.315796,95.942360 98.174637,96.041550 
	C94.785355,92.457321 91.484474,88.783653 87.978188,85.317780 
	C85.280045,82.650749 82.323532,80.245094 79.172287,77.203087 
	C78.545708,76.466042 78.228767,76.249123 77.911819,76.032204 
	C77.911819,76.032204 77.985901,76.024361 77.835693,75.786713 
	C77.117348,75.355286 76.549210,75.161507 75.981064,74.967735 
	C75.981064,74.967735 76.011086,74.971802 75.911911,74.661560 
	C74.009308,72.918541 72.205879,71.485764 69.481735,69.321487 
	C68.906250,77.877937 68.322380,84.919571 67.985985,91.973015 
	C67.558884,100.928215 64.713646,103.904449 56.006142,104.088127 
M77.930550,47.607956 
	C79.906517,45.608135 81.992569,43.700993 83.797440,41.557121 
	C84.411087,40.828209 84.671906,39.407154 84.423470,38.482521 
	C84.249557,37.835243 82.964684,37.139442 82.129471,37.075813 
	C78.115234,36.769997 71.776443,45.656368 73.055237,50.358135 
	C74.559402,49.567707 75.965706,48.828697 77.930550,47.607956 
z"/>
<path fill="#F9786D" opacity="1.000000" stroke="none" 
	d="
M309.817566,104.210342 
	C306.050140,102.894310 303.981842,100.187012 304.284454,96.254250 
	C305.471588,80.827614 306.599884,65.389565 308.231812,50.006874 
	C309.067383,42.130219 311.965759,34.821762 317.509033,28.846577 
	C328.087372,17.444054 342.547729,17.849943 352.763306,30.330425 
	C353.394531,31.219856 353.738831,31.599615 354.083130,31.979374 
	C354.083130,31.979372 354.009705,31.975557 354.047058,32.365982 
	C358.100281,45.745560 350.690979,54.124477 341.417999,62.262932 
	C343.551239,63.795860 345.241882,65.010735 346.932526,66.225601 
	C352.062286,72.054718 357.192047,77.883827 362.642822,84.224808 
	C363.334564,85.151352 363.705292,85.566017 364.076050,85.980682 
	C364.076050,85.980675 364.004883,85.987381 364.000916,86.377228 
	C363.976074,93.901627 361.066650,96.508102 352.600922,96.976471 
	C348.879028,92.993515 345.321167,88.838852 341.385956,85.079163 
	C337.920868,81.768631 334.033875,78.899651 330.067444,75.224709 
	C327.859283,73.059860 325.916870,71.505974 323.521301,69.589577 
	C322.654236,78.467476 321.969666,86.210228 321.124451,93.935410 
	C320.188110,102.493668 318.666321,103.808998 309.817566,104.210342 
M337.938293,40.933510 
	C338.423920,36.913887 336.818970,35.918190 333.464996,38.037567 
	C328.847961,40.955048 325.986572,45.027615 325.444672,50.448727 
	C325.874573,50.864391 326.304504,51.280056 326.734406,51.695721 
	C330.370697,48.345959 334.007019,44.996201 337.938293,40.933510 
z"/>
<path fill="#F9796E" opacity="1.000000" stroke="none" 
	d="
M272.036865,42.624714 
	C276.507843,42.822392 280.646149,43.649220 282.897705,49.012302 
	C282.603973,57.524883 279.331116,60.141418 271.532593,59.230511 
	C268.950958,58.928967 266.304443,59.182972 263.257294,59.182972 
	C262.730133,63.507107 262.244354,67.492012 261.678497,72.133430 
	C264.195648,71.776627 265.783447,71.551559 267.371277,71.326492 
	C272.479126,71.255394 277.587402,71.207893 282.694641,71.105766 
	C286.819885,71.023277 290.119263,72.363075 292.170837,76.844376 
	C292.485870,77.724403 292.733917,77.910194 293.075470,77.971283 
	C293.075470,77.971283 293.009430,77.944366 292.983948,78.326492 
	C292.741180,83.149872 291.531677,87.433998 286.468384,87.826302 
	C274.012939,88.791359 261.512787,89.179649 249.030624,89.799896 
	C244.350677,87.323303 242.805634,83.901550 243.735794,78.341270 
	C246.856445,59.686638 249.349213,40.927612 252.162445,22.220602 
	C253.261078,14.915164 256.068085,12.381379 263.463104,12.373899 
	C270.604065,12.366677 277.806946,12.314569 284.856049,13.243191 
	C287.637177,13.609569 290.075867,16.575504 292.833832,19.074921 
	C292.955231,27.707489 290.383514,30.241879 282.568329,29.904970 
	C280.768707,29.827387 278.989410,29.360609 277.190979,29.160952 
	C268.556488,28.202377 268.359009,28.360451 266.836243,36.923267 
	C265.773010,42.902153 265.841614,42.977348 272.036865,42.624714 
z"/>
<path fill="#F9786E" opacity="1.000000" stroke="none" 
	d="
M150.649292,42.716770 
	C155.298187,42.703896 159.249222,43.967247 161.610382,49.214378 
	C160.145401,58.593441 158.444992,59.861263 149.590744,59.131664 
	C147.947403,58.996250 146.210297,58.769936 144.657913,59.155315 
	C143.455307,59.453861 141.757782,60.473297 141.524597,61.464897 
	C140.754974,64.737732 140.550156,68.143387 140.046692,72.148773 
	C142.429749,71.794357 144.148178,71.538780 145.866623,71.283211 
	C151.021210,71.226768 156.175705,71.160484 161.330399,71.117004 
	C165.479095,71.082008 168.796570,72.526688 170.845001,77.189285 
	C171.037399,84.575302 168.986923,87.686478 164.121414,87.986282 
	C152.056122,88.729744 139.984756,89.374756 127.915833,90.059319 
	C127.915833,90.059319 127.961555,90.003525 127.881348,89.819450 
	C127.600929,89.360962 127.331001,89.223518 126.991371,89.223061 
	C123.005989,87.678604 121.372665,84.767906 122.001968,80.571777 
	C125.054382,60.218483 128.053314,39.856796 131.226227,19.522274 
	C131.812225,15.766777 134.229431,12.877702 138.226440,12.828406 
	C147.178375,12.718002 156.158661,12.763651 165.074341,13.442549 
	C167.159103,13.601296 169.032654,16.534126 171.102402,18.885647 
	C172.174133,26.532339 169.270767,30.028553 162.330124,29.910912 
	C158.202698,29.840952 154.083374,29.225685 149.957306,29.187166 
	C148.721497,29.175629 146.575485,30.080217 146.388474,30.911854 
	C145.547684,34.650715 145.261856,38.514366 144.727036,42.716770 
	C147.382309,42.716770 149.015808,42.716770 150.649292,42.716770 
z"/>
<path fill="#F9786D" opacity="1.000000" stroke="none" 
	d="
M406.146820,66.008186 
	C410.380127,56.189724 414.670013,46.395065 418.817108,36.540329 
	C420.334442,32.934719 422.428070,30.266005 426.619080,29.932774 
	C430.862000,29.595411 433.995422,31.239635 435.971191,35.836834 
	C435.775208,37.869282 435.721863,39.250923 435.214142,40.438290 
	C427.959778,57.404560 420.556274,74.307610 413.395355,91.312920 
	C411.175385,96.584839 407.639404,98.797096 402.058411,97.866638 
	C399.391052,94.564980 395.639404,91.665024 394.241913,87.892899 
	C387.804718,70.517128 381.912140,52.935169 376.088135,35.339787 
	C374.674408,31.068611 376.317261,27.486135 380.797424,25.678011 
	C385.361511,23.836025 388.873260,25.327658 392.597168,31.245853 
	C396.452698,44.463413 400.034729,57.022976 403.616730,69.582542 
	C404.092316,69.557129 404.567902,69.531715 405.043488,69.506310 
	C405.411255,68.340271 405.779022,67.174225 406.146820,66.008186 
z"/>
<path fill="#F9796E" opacity="1.000000" stroke="none" 
	d="
M212.821732,42.978256 
	C217.754852,46.767529 222.687958,50.556805 227.877838,54.889091 
	C228.427429,55.634926 228.720230,55.837749 229.013031,56.040573 
	C229.013031,56.040577 228.968704,56.029953 228.962769,56.396275 
	C229.058914,57.250584 229.053299,57.796051 229.278610,58.218277 
	C238.459244,75.422318 224.558304,94.888329 204.676697,93.988152 
	C200.429413,93.795845 196.225113,92.653900 192.001022,91.949440 
	C192.001022,91.949440 192.028595,91.968124 191.957184,91.719696 
	C191.572754,91.291420 191.259750,91.111572 190.946747,90.931725 
	C189.462662,89.598045 187.906876,88.335106 186.508026,86.917328 
	C182.412140,82.766037 181.787247,79.214127 184.471252,75.939331 
	C187.615768,72.102654 193.666824,71.085358 197.416504,74.594719 
	C201.256866,78.188972 205.395309,77.693260 209.534149,76.658157 
	C215.673965,75.122620 217.265015,67.990166 212.394821,63.928539 
	C207.990936,60.255806 202.967819,57.320595 198.601944,53.608364 
	C190.853943,47.020428 189.125916,39.211292 192.934875,29.810925 
	C195.949860,22.370136 201.347427,17.076164 208.457230,13.584274 
	C213.509827,11.102761 216.785980,12.458982 221.654907,19.085480 
	C220.753632,22.175926 220.102325,25.010086 218.412247,26.929688 
	C216.757355,28.809330 213.952972,29.627987 211.813354,31.139183 
	C205.963348,35.270969 206.372833,39.667034 212.821732,42.978256 
z"/>
<path fill="#F9796E" opacity="1.000000" stroke="none" 
	d="
M452.884583,95.019585 
	C448.474701,93.080040 446.926056,89.699883 447.341614,84.966133 
	C448.985046,66.244797 450.525604,47.514175 452.025208,28.780664 
	C452.392700,24.189962 453.548737,20.191240 458.325165,18.394018 
	C462.808990,16.706894 466.393890,18.211800 469.134338,23.591150 
	C467.500336,44.172554 465.941864,63.936398 464.110382,83.674911 
	C463.209595,93.383102 461.530365,94.820877 452.884583,95.019585 
z"/>
<path fill="#9D9B9A" opacity="1.000000" stroke="none" 
	d="
M402.151642,98.211868 
	C407.639404,98.797096 411.175385,96.584839 413.395355,91.312920 
	C420.556274,74.307610 427.959778,57.404560 435.214142,40.438290 
	C435.721863,39.250923 435.775208,37.869282 436.082550,36.160225 
	C440.974792,38.508488 442.076416,40.904991 439.970337,45.864231 
	C432.767242,62.825798 425.526062,79.773827 418.033539,96.608696 
	C414.402954,104.766266 408.267792,105.359421 402.151642,98.211868 
z"/>
<path fill="#9E9B9A" opacity="1.000000" stroke="none" 
	d="
M452.947449,95.376968 
	C461.530365,94.820877 463.209595,93.383102 464.110382,83.674911 
	C465.941864,63.936398 467.500336,44.172554 469.243042,23.917206 
	C473.627014,24.536314 474.381500,27.727423 474.048248,31.551134 
	C472.894012,44.793301 471.716003,58.033451 470.595367,71.278458 
	C470.035095,77.900520 469.426483,84.524620 469.130402,91.160774 
	C468.931824,95.612663 466.817627,98.552414 462.749695,99.647560 
	C458.786652,100.714478 455.111938,99.880737 452.947449,95.376968 
z"/>
<path fill="#9E9B9B" opacity="1.000000" stroke="none" 
	d="
M192.134415,92.266418 
	C196.225113,92.653900 200.429413,93.795845 204.676697,93.988152 
	C224.558304,94.888329 238.459244,75.422318 229.278610,58.218277 
	C229.053299,57.796051 229.058914,57.250584 228.958405,56.373905 
	C236.745316,63.342281 238.987854,72.339493 235.677429,82.302162 
	C232.289795,92.497215 224.226013,97.526299 213.973801,98.925606 
	C205.936569,100.022591 198.405701,98.447975 192.134415,92.266418 
z"/>
<path fill="#9D9A9A" opacity="1.000000" stroke="none" 
	d="
M127.908661,90.426926 
	C139.984756,89.374756 152.056122,88.729744 164.121414,87.986282 
	C168.986923,87.686478 171.037399,84.575302 171.018295,77.492813 
	C175.856476,79.248726 176.923416,83.322571 175.644333,87.843369 
	C174.432312,92.127068 170.842758,93.022690 166.585617,93.151451 
	C157.322891,93.431595 148.075150,94.219505 138.822739,94.822189 
	C134.574081,95.098946 130.444717,95.113762 127.908661,90.426926 
z"/>
<path fill="#9D9B9B" opacity="1.000000" stroke="none" 
	d="
M249.100220,90.161736 
	C261.512787,89.179649 274.012939,88.791359 286.468384,87.826302 
	C291.531677,87.433998 292.741180,83.149872 293.014771,78.308540 
	C297.581024,79.185295 298.065521,82.898331 297.636414,86.523216 
	C297.186859,90.320526 294.692474,92.765633 290.638916,93.017746 
	C279.770325,93.693726 268.900391,94.655304 258.025909,94.726311 
	C255.083160,94.745506 252.122345,92.000061 249.100220,90.161736 
z"/>
<path fill="#9F9B9B" opacity="1.000000" stroke="none" 
	d="
M150.640396,42.300781 
	C149.015808,42.716770 147.382309,42.716770 144.727036,42.716770 
	C145.261856,38.514366 145.547684,34.650715 146.388474,30.911854 
	C146.575485,30.080217 148.721497,29.175629 149.957306,29.187166 
	C154.083374,29.225685 158.202698,29.840952 162.330124,29.910912 
	C169.270767,30.028553 172.174133,26.532339 171.223190,19.216393 
	C175.782700,20.785465 177.306747,24.366652 176.298630,28.941082 
	C175.263016,33.640263 171.884827,35.236652 167.311417,34.947571 
	C164.321655,34.758591 161.319748,34.769344 158.324295,34.661968 
	C151.125870,34.403915 151.126114,34.397099 150.640396,42.300781 
z"/>
<path fill="#9E9B9B" opacity="1.000000" stroke="none" 
	d="
M56.065117,104.434021 
	C64.713646,103.904449 67.558884,100.928215 67.985985,91.973015 
	C68.322380,84.919571 68.906250,77.877937 69.481735,69.321487 
	C72.205879,71.485764 74.009308,72.918541 75.922707,74.672195 
	C75.369583,77.098732 74.330582,79.166595 74.114395,81.317184 
	C73.484772,87.580696 73.277763,93.885574 72.722481,100.158073 
	C72.339287,104.486603 70.271698,107.882538 65.800537,108.838898 
	C61.831459,109.687866 58.142517,109.001320 56.065117,104.434021 
z"/>
<path fill="#9E9A9A" opacity="1.000000" stroke="none" 
	d="
M309.895996,104.557846 
	C318.666321,103.808998 320.188110,102.493668 321.124451,93.935410 
	C321.969666,86.210228 322.654236,78.467476 323.521301,69.589577 
	C325.916870,71.505974 327.859283,73.059860 329.862671,74.973648 
	C329.288055,76.557991 328.222321,77.737122 328.087708,79.014381 
	C327.308350,86.409012 326.742828,93.826317 326.116638,101.236931 
	C325.767242,105.371185 323.571930,108.108490 319.568237,108.925323 
	C315.620392,109.730774 311.894562,109.283356 309.895996,104.557846 
z"/>
<path fill="#9E9A9A" opacity="1.000000" stroke="none" 
	d="
M272.020111,42.237122 
	C265.841614,42.977348 265.773010,42.902153 266.836243,36.923267 
	C268.359009,28.360451 268.556488,28.202377 277.190979,29.160952 
	C278.989410,29.360609 280.768707,29.827387 282.568329,29.904970 
	C290.383514,30.241879 292.955231,27.707489 293.009064,19.369030 
	C297.479156,21.493193 299.242493,25.166960 297.795624,29.591837 
	C296.479065,33.618214 293.350739,35.134403 289.271210,34.925602 
	C284.163635,34.664173 279.056915,34.385857 273.271881,34.078854 
	C272.828644,36.793930 272.416016,39.321732 272.020111,42.237122 
z"/>
<path fill="#9E9A9A" opacity="1.000000" stroke="none" 
	d="
M347.246094,66.061005 
	C345.241882,65.010735 343.551239,63.795860 341.417999,62.262932 
	C350.690979,54.124477 358.100281,45.745560 354.068176,32.335892 
	C360.115997,36.320015 362.683105,44.580467 358.827606,51.691837 
	C355.990448,56.924835 351.379944,61.196404 347.246094,66.061005 
z"/>
<path fill="#9E9B9B" opacity="1.000000" stroke="none" 
	d="
M93.408356,66.048409 
	C91.413147,64.961586 89.720055,63.715546 87.656776,62.197063 
	C96.889557,53.718300 105.223625,45.283985 99.956833,31.241156 
	C106.766075,36.716343 109.030022,44.456280 104.780998,52.127289 
	C101.970253,57.201702 97.459915,61.334709 93.408356,66.048409 
z"/>
<path fill="#9E9A9A" opacity="1.000000" stroke="none" 
	d="
M267.474670,70.862846 
	C265.783447,71.551559 264.195648,71.776627 261.678497,72.133430 
	C262.244354,67.492012 262.730133,63.507107 263.257294,59.182972 
	C266.304443,59.182972 268.950958,58.928967 271.532593,59.230511 
	C279.331116,60.141418 282.603973,57.524883 283.054718,49.317238 
	C287.651154,50.633366 288.700958,54.225758 287.795563,58.513382 
	C286.933044,62.597820 282.940796,65.092491 278.324951,64.774483 
	C275.102264,64.552452 271.885162,64.249329 268.431213,63.962997 
	C268.089783,66.538635 267.833923,68.468918 267.474670,70.862846 
z"/>
<path fill="#9F9A9A" opacity="1.000000" stroke="none" 
	d="
M145.888489,70.843094 
	C144.148178,71.538780 142.429749,71.794357 140.046692,72.148773 
	C140.550156,68.143387 140.754974,64.737732 141.524597,61.464897 
	C141.757782,60.473297 143.455307,59.453861 144.657913,59.155315 
	C146.210297,58.769936 147.947403,58.996250 149.590744,59.131664 
	C158.444992,59.861263 160.145401,58.593441 161.827484,49.473335 
	C165.849075,50.973236 167.322372,54.216328 166.140686,58.371784 
	C164.855164,62.892399 161.683395,65.174622 156.857391,64.785339 
	C155.709747,64.692764 154.575592,64.443138 153.431442,64.295212 
	C146.831970,63.441914 146.455536,63.750416 145.888489,70.843094 
z"/>
<path fill="#9E9B9A" opacity="1.000000" stroke="none" 
	d="
M212.857697,42.606064 
	C206.372833,39.667034 205.963348,35.270969 211.813354,31.139183 
	C213.952972,29.627987 216.757355,28.809330 218.412247,26.929688 
	C220.102325,25.010086 220.753632,22.175926 221.849945,19.346554 
	C228.737534,23.966097 228.550385,29.291170 221.444351,33.415104 
	C217.799835,35.530167 213.410446,37.038185 212.857697,42.606064 
z"/>
<path fill="#A19B9B" opacity="1.000000" stroke="none" 
	d="
M406.055878,65.628510 
	C405.779022,67.174225 405.411255,68.340271 405.043488,69.506310 
	C404.567902,69.531715 404.092316,69.557129 403.616730,69.582542 
	C400.034729,57.022976 396.452698,44.463413 392.815979,31.500698 
	C394.447662,33.354992 396.838043,35.375092 397.693512,37.912647 
	C400.733337,46.929405 403.250061,56.122513 406.055878,65.628510 
z"/>
<path fill="#9F9A9A" opacity="1.000000" stroke="none" 
	d="
M98.294693,96.345169 
	C100.315796,95.942360 102.594833,96.280060 104.570557,95.656609 
	C109.255325,94.178284 110.878433,90.666740 109.842606,85.489594 
	C113.272995,87.573593 116.629524,90.871208 114.968910,95.169350 
	C113.943390,97.823708 110.414169,100.238739 107.486855,101.250229 
	C103.632462,102.582062 100.679367,99.741287 98.294693,96.345169 
z"/>
<path fill="#9F9D9C" opacity="1.000000" stroke="none" 
	d="
M352.753418,97.317123 
	C361.066650,96.508102 363.976074,93.901627 364.023987,86.349922 
	C369.519745,90.583130 370.628937,95.274544 367.121857,98.921066 
	C362.992310,103.214798 357.523529,102.728821 352.753418,97.317123 
z"/>
<path fill="#9E9B9B" opacity="1.000000" stroke="none" 
	d="
M76.127701,75.240662 
	C76.549210,75.161507 77.117348,75.355286 77.832382,75.823807 
	C77.410965,75.903572 76.842644,75.708580 76.127701,75.240662 
z"/>
<path fill="#9E9A9A" opacity="1.000000" stroke="none" 
	d="
M354.102020,31.700148 
	C353.738831,31.599615 353.394531,31.219856 353.008606,30.576530 
	C353.351654,30.682281 353.736267,31.051601 354.102020,31.700148 
z"/>
<path fill="#9F9D9C" opacity="1.000000" stroke="none" 
	d="
M364.093018,85.665466 
	C363.705292,85.566017 363.334564,85.151352 362.891083,84.450912 
	C363.248901,84.560181 363.679443,84.955208 364.093018,85.665466 
z"/>
<path fill="#9E9B9B" opacity="1.000000" stroke="none" 
	d="
M228.924911,55.782856 
	C228.720230,55.837749 228.427429,55.634926 228.048553,55.166481 
	C228.253937,55.108948 228.545364,55.317043 228.924911,55.782856 
z"/>
<path fill="#9E9B9B" opacity="1.000000" stroke="none" 
	d="
M77.990051,76.318390 
	C78.228767,76.249123 78.545708,76.466042 78.961479,76.965126 
	C78.729630,77.033051 78.398956,76.818817 77.990051,76.318390 
z"/>
<path fill="#9D9B9B" opacity="1.000000" stroke="none" 
	d="
M293.083435,77.717972 
	C292.733917,77.910194 292.485870,77.724403 292.291809,77.179543 
	C292.531982,77.118332 292.811676,77.291496 293.083435,77.717972 
z"/>
<path fill="#9D9A9A" opacity="1.000000" stroke="none" 
	d="
M127.069565,89.457443 
	C127.331001,89.223518 127.600929,89.360962 127.887642,89.854965 
	C127.586067,90.189339 127.310616,90.061760 127.069565,89.457443 
z"/>
<path fill="#9E9B9B" opacity="1.000000" stroke="none" 
	d="
M191.051239,91.181686 
	C191.259750,91.111572 191.572754,91.291420 191.966080,91.733765 
	C191.749512,91.808060 191.452621,91.619858 191.051239,91.181686 
z"/>
<path fill="#9D9797" opacity="1.000000" stroke="none" 
	d="
M77.651283,47.848824 
	C75.965706,48.828697 74.559402,49.567707 73.055237,50.358135 
	C71.776443,45.656368 78.115234,36.769997 82.129471,37.075813 
	C82.964684,37.139442 84.249557,37.835243 84.423470,38.482521 
	C84.671906,39.407154 84.411087,40.828209 83.797440,41.557121 
	C81.992569,43.700993 79.906517,45.608135 77.651283,47.848824 
z"/>
<path fill="#9E9797" opacity="1.000000" stroke="none" 
	d="
M337.790802,41.289974 
	C334.007019,44.996201 330.370697,48.345959 326.734406,51.695721 
	C326.304504,51.280056 325.874573,50.864391 325.444672,50.448727 
	C325.986572,45.027615 328.847961,40.955048 333.464996,38.037567 
	C336.818970,35.918190 338.423920,36.913887 337.790802,41.289974 
z"/>
</svg>